<?xml version="1.0" encoding="UTF-8"?>
<svg width="680px" height="705px" viewBox="0 0 680 705" version="1.1" xmlns="http://www.w3.org/2000/svg" xmlns:xlink="http://www.w3.org/1999/xlink">
    <title>Group</title>
    <g id="Page-1" stroke="none" stroke-width="1" fill="none" fill-rule="evenodd">
        <g id="Group">
            <circle id="Oval" fill="#FFFFFF" cx="340" cy="340" r="340"></circle>
            <g transform="translate(-428, -145)" id="Path">
                <path d="M944,362 C945.077656,362.180469 946.155313,362.360937 947.265625,362.546875 C950.809199,363.005015 954.053918,362.89742 957.609375,362.578125 C963.892902,362.152855 970.006117,361.791727 976,364 C981.445587,368.792765 984.058323,375.796508 986.831055,382.349121 C988.423835,385.961152 990.385907,389.215505 992.5625,392.5 C993.276641,393.585391 993.990781,394.670781 994.726562,395.789062 C1001.46424,405.30516 1009.35105,415.675526 1020,421 C1020,421.66 1020,422.32 1020,423 C1015.60418,423.029076 1011.20839,423.046824 1006.8125,423.0625 C1005.56662,423.070879 1004.32074,423.079258 1003.03711,423.087891 C1001.23403,423.092725 1001.23403,423.092725 999.394531,423.097656 C997.737079,423.105511 997.737079,423.105511 996.046143,423.113525 C993.242006,423.009019 990.725827,422.64098 988,422 C991.138388,424.824549 994.004114,426.403308 997.875,427.9375 C1003.78682,430.766415 1005.59841,435.003753 1008.375,440.730469 C1014.2298,452.510444 1025.85494,464.724872 1038,470 C1038,470.66 1038,471.32 1038,472 C1023.89923,474.764212 1010.35184,475.377527 996,475 C996.451655,475.427727 996.903311,475.855454 997.368652,476.296143 C1007.99084,486.593163 1017.72248,501.913083 1019,517 C1018.53906,519.25 1018.53906,519.25 1018,521 C1017.58492,520.575898 1017.16984,520.151797 1016.74219,519.714844 C1010.58357,513.852565 1003.63232,510.526733 996,507 C996.386719,507.931992 996.773438,508.863984 997.171875,509.824219 C1006,531.343838 1006,531.343838 1006,537 C991.916788,537.682669 977.293684,535.818533 964,531 C964.424102,531.547852 964.848203,532.095703 965.285156,532.660156 C972.767066,542.773068 981.380392,557.066675 981,570 C979.410586,569.13375 979.410586,569.13375 977.789062,568.25 C976.401159,567.499782 975.013132,566.749794 973.625,566 C972.926328,565.618438 972.227656,565.236875 971.507812,564.84375 C967.957105,562.742753 967.957105,562.742753 964,562 C965.2375,563.175625 965.2375,563.175625 966.5,564.375 C969,567 969,567 969,569 C969.571055,569.255234 970.142109,569.510469 970.730469,569.773438 C973.248974,571.134558 975.150108,572.75018 977.3125,574.625 C989.350018,584.336087 1003.09824,589.416032 1018,593 C1018,593.66 1018,594.32 1018,595 C1006.94827,601.959136 995.919923,606.64416 983,609 C983.484688,609.559453 983.969375,610.118906 984.46875,610.695312 C991.104899,618.633167 996.00538,627.344208 1000.82422,636.445312 C1004.55695,643.316037 1008.65443,649.423612 1013.5625,655.5 C1014.09255,656.15855 1014.62259,656.8171 1015.1687,657.495605 C1019.08915,662.220911 1023.43283,667.216415 1029,670 C1029,670.66 1029,671.32 1029,672 C1006.19872,672.412779 1006.19872,672.412779 997,670 C997.424102,670.559453 997.848203,671.118906 998.285156,671.695312 C1009.5991,687.161848 1020.06571,709.284438 1019,729 C1018.53852,728.648086 1018.07703,728.296172 1017.60156,727.933594 C1015.41096,726.275493 1013.20567,724.637985 1011,723 C1010.27555,722.446992 1009.55109,721.893984 1008.80469,721.324219 C999.506569,714.468826 989.106416,709.383808 978.25,705.5 C966.203249,701.014033 957.085091,692.800737 948,684 C947.392852,683.439258 946.785703,682.878516 946.160156,682.300781 C945,681 945,681 945,679 C945.710273,679.284883 946.420547,679.569766 947.152344,679.863281 C953.989906,682.592679 960.827799,685.283086 967.804688,687.636719 C979.055824,691.438187 990.048604,695.365736 1000,702 C993.745356,684.888848 980.370614,669.287328 966.1875,658.1875 C957.639523,651.458241 950.404895,643.78022 944,635 C944.33,634.34 944.66,633.68 945,633 C946.044141,633.605859 947.088281,634.211719 948.164062,634.835938 C964.993488,644.469105 982.240119,652.893442 1001,658 C1000.49791,657.470679 999.99582,656.941357 999.478516,656.395996 C994.358186,650.842538 990.336132,645.114501 986.5,638.625 C985.371345,636.765191 984.239857,634.907098 983.105469,633.050781 C982.569702,632.173735 982.033936,631.296689 981.481934,630.393066 C972.83891,616.436078 961.875749,606.492073 948.575195,597.117676 C946.68998,595.780026 944.839166,594.400169 943,593 C944.50051,593.289033 946.000377,593.581399 947.5,593.875 C948.752969,594.118633 948.752969,594.118633 950.03125,594.367188 C952.291201,594.848914 954.529921,595.431434 956.753906,596.058594 C961.337447,597.216108 965.731862,597.259661 970.4375,597.1875 C971.629561,597.186533 971.629561,597.186533 972.845703,597.185547 C982.183079,597.388803 982.183079,597.388803 991,595 C990.195625,594.814375 990.195625,594.814375 989.375,594.625 C983.585885,593.101549 978.386762,590.870647 973.0625,588.1875 C972.36262,587.835828 971.662739,587.484155 970.94165,587.121826 C967.993585,585.616629 965.13775,584.086851 962.335938,582.320312 C955.183678,577.823941 947.706316,576.363477 939.497803,574.823486 C930.982299,573.195257 923.021536,570.821735 915.875,565.75 C915.129922,565.229219 914.384844,564.708437 913.617188,564.171875 C913.083516,563.785156 912.549844,563.398438 912,563 C913.682904,568.688028 916.232649,573.867649 918.8125,579.1875 C919.711412,581.062272 920.609854,582.93727 921.507812,584.8125 C922.661078,587.2142 923.814737,589.615695 924.97168,592.015625 C925.717892,593.569287 926.453409,595.128075 927.1875,596.6875 C927.57293,597.495742 927.958359,598.303984 928.355469,599.136719 C928.568164,599.751602 928.780859,600.366484 929,601 C928.67,601.66 928.34,602.32 928,603 C927.633906,602.526914 927.267812,602.053828 926.890625,601.566406 C916.458428,588.824223 902.54867,582.182463 887.8125,575.710938 C886.930137,575.321641 886.047773,574.932344 885.138672,574.53125 C883.43129,573.783086 881.719273,573.045373 880.001953,572.320312 C874.388695,569.880162 869.735285,566.874769 865,563 C866.987864,571.607988 872.218421,578.530138 878,585 C878,585.66 878,586.32 878,587 C878.572344,587.244922 879.144687,587.489844 879.734375,587.742188 C882.380244,589.211101 884.148531,590.953482 886.25,593.125 C886.956406,593.849453 887.662812,594.573906 888.390625,595.320312 C889.187266,596.151758 889.187266,596.151758 890,597 C886.850869,598.04971 886.109507,597.99801 883.042969,597.214844 C881.878824,596.918158 881.878824,596.918158 880.691162,596.615479 C879.864954,596.391746 879.038745,596.168013 878.1875,595.9375 C877.337444,595.709255 876.487388,595.481011 875.611572,595.24585 C861.654525,591.361818 849.056612,585.420361 838,576 C843.650171,590.233423 849.466581,602.551124 859.5625,614.1875 C862,617 862,617 862,619 C842.851442,614.581102 821.562913,601.875394 810.4375,585.4375 C809.963125,584.633125 809.48875,583.82875 809,583 C809.417656,583.812109 809.417656,583.812109 809.84375,584.640625 C811.152252,587.310677 812.337231,590.013239 813.5,592.75 C813.922812,593.734844 814.345625,594.719687 814.78125,595.734375 C817.347997,602.61194 818.340769,608.655011 818.25,615.9375 C818.242507,616.733093 818.235015,617.528687 818.227295,618.348389 C818.127031,623.80464 817.777553,628.806213 816,634 C815.67,635.001602 815.34,636.003203 815,637.035156 C810.417566,649.923253 802.843354,659.804343 794,670 C793.34,669.67 792.68,669.34 792,669 C792.598125,667.948125 793.19625,666.89625 793.8125,665.8125 C802.591302,648.254895 801.071955,626.817465 797.1875,608.25 C796.922606,606.918211 796.658931,605.586179 796.396484,604.253906 C794.896653,596.748149 793.138831,589.350133 791,582 C790.936836,582.920391 790.873672,583.840781 790.808594,584.789062 C788.821978,605.324398 776.593453,620.112375 761.3125,633.1875 C751.24537,641.899056 741.896041,650.91177 736,663 C735.67,663 735.34,663 735,663 C736.196391,644.676325 741.088441,630.068744 749.890625,614.060547 C751.674837,610.746562 753.335072,607.375263 755,604 C729.510532,622.276359 729.510532,622.276359 713,648 C712.34,648 711.68,648 711,648 C710.671817,635.609845 710.488565,623.99066 714,612 C714.228164,611.199492 714.456328,610.398984 714.691406,609.574219 C715.384269,607.34518 716.16407,605.17939 717,603 C717.37125,602.020313 717.7425,601.040625 718.125,600.03125 C720.49008,594.059423 722.998851,589.030016 727,584 C726.538516,584.556875 726.077031,585.11375 725.601562,585.6875 C720.561156,591.584577 715.214571,596.375806 709,601 C707.959727,601.782461 706.919453,602.564922 705.847656,603.371094 C696.962522,609.942014 687.598048,615.538641 678,621 C676.923252,617.769756 677.049521,616.049255 678.300781,612.902344 C678.613943,612.109409 678.927104,611.316475 679.249756,610.499512 C679.600461,609.654048 679.951167,608.808584 680.3125,607.9375 C680.667717,607.063677 681.022935,606.189854 681.388916,605.289551 C685.070162,596.453609 689.478345,588.03085 694.095459,579.653809 C694.754527,578.448807 695.385769,577.228462 696,576 C695.135039,576.594258 694.270078,577.188516 693.378906,577.800781 C684.98579,583.387456 676.359438,587.885508 667.125,591.9375 C665.557943,592.62743 665.557943,592.62743 663.959229,593.331299 C657.742334,596.000898 651.529972,598.226752 645,600 C646.175625,598.422188 646.175625,598.422188 647.375,596.8125 C647.921562,596.076445 648.468125,595.340391 649.03125,594.582031 C650.435145,592.740812 651.877161,590.928401 653.34375,589.136719 C660.860266,579.896016 666.112489,570.038968 670.652344,559.046875 C670.913057,558.417732 671.17377,557.788589 671.442383,557.140381 C672.139537,555.43016 672.810985,553.709523 673.480469,551.988281 C675.476755,548.062423 678.013986,544.993007 682,543 C680.591769,567.718161 680.591769,567.718161 677,574 C681.902059,570.347485 686.774035,566.657476 691.625,562.9375 C692.162781,562.52645 692.700562,562.1154 693.254639,561.691895 C696.483164,559.229925 696.483164,559.229925 699.522461,556.543457 C702.028904,554.181334 703.343522,552.992825 706.859375,553.03125 C707.895781,553.350937 708.932188,553.670625 710,554 C710.942627,554.27457 710.942627,554.27457 711.904297,554.554688 C714.027914,555.178209 716.138463,555.836798 718.25,556.5 C723.060292,557.996878 727.358792,559.217703 732.4375,559.25 C737.936992,559.55656 740.643294,562.905581 744.40625,566.632812 C748.855614,570.693527 754.810806,575 761,575 C756.545,571.535 756.545,571.535 752,568 C755,568 755,568 758.1875,568.984375 C762.206578,570.055031 765.878082,570.297378 770,570.25 C770.672891,570.257734 771.345781,570.265469 772.039062,570.273438 C776.749476,570.255251 780.574841,569.452005 785,568 C784.67,569.32 784.34,570.64 784,572 C786.126779,570.544205 788.251454,569.085498 790.375,567.625 C790.978281,567.2125 791.581563,566.8 792.203125,566.375 C794.637828,564.69776 796.904678,563.095322 799,561 C801.430095,560.626595 803.805867,560.347738 806.25,560.125 C813.159889,559.398964 819.385115,557.938283 826.011719,555.804688 C828.969099,555.008321 830.979074,554.502262 834,555 C836.289062,556.871094 836.289062,556.871094 838.625,559.4375 C843.739192,564.836241 849.188598,569.369863 855,574 C855.33,574.33 855.66,574.66 856,575 C855.783437,573.888184 855.783437,573.888184 855.5625,572.753906 C853.918499,563.426484 853.796417,554.443988 854,545 C854.712852,545.458906 855.425703,545.917812 856.160156,546.390625 C857.596816,547.311016 857.596816,547.311016 859.0625,548.25 C860.002227,548.853281 860.941953,549.456563 861.910156,550.078125 C867.744562,553.707111 873.229377,556.647032 879.6875,558.9375 C881.094343,559.451504 882.500589,559.967147 883.90625,560.484375 C884.595898,560.737676 885.285547,560.990977 885.996094,561.251953 C892.59811,563.716449 899.014457,566.257688 905,570 C903.730632,566.811915 902.459238,563.624641 901.1875,560.4375 C900.831074,559.542246 900.474648,558.646992 900.107422,557.724609 C898.540384,553.799826 896.964633,549.892807 895.238281,546.035156 C894,543 894,543 894,540 C897.830195,540.645947 900.463868,542.453312 903.6875,544.5625 C918.539233,553.905675 934.157953,559.284316 951,564 C950.40832,563.347734 949.816641,562.695469 949.207031,562.023438 C941.980025,554.030109 941.980025,554.030109 939.4375,550.8125 C936.269861,547.157532 932.699751,544.103017 929,541 C931,540 931,540 932.996094,540.481445 C933.801758,540.76085 934.607422,541.040254 935.4375,541.328125 C936.333398,541.633633 937.229297,541.939141 938.152344,542.253906 C939.09207,542.582617 940.031797,542.911328 941,543.25 C942.832808,543.881734 944.666141,544.511948 946.5,545.140625 C947.403633,545.450645 948.307266,545.760664 949.238281,546.080078 C953.462482,547.487149 957.725566,548.755222 962,550 C950.655889,534.391791 938.708911,523.073589 922.730469,512.277344 C922.159414,511.85582 921.588359,511.434297 921,511 C921,510.67 921,510.34 921,510 C940.535464,508.96577 957.682547,514.862019 975.644531,521.789062 C976.370757,522.067097 977.096982,522.345132 977.845215,522.631592 C979.196884,523.152229 980.545182,523.681743 981.88916,524.221924 C985.39192,525.587335 988.236254,526.292815 992,526 C987.368981,515.521997 982.715208,505.086653 977.388672,494.939453 C975.9106,492.077011 975,490.273033 975,487 C983.25,490.96 991.5,494.92 1000,499 C992.291069,489.363836 985.467965,480.943371 975.886719,473.339844 C969.985545,468.556619 964.319196,463.42418 959,458 C965.55935,458.410845 971.976031,459.273025 978.4375,460.4375 C979.169849,460.569146 979.902197,460.700791 980.656738,460.836426 C983.88641,461.422006 987.112477,462.0216 990.335938,462.640625 C997.287878,463.917884 1003.93663,464.225427 1011,464 C1008.73144,461.596229 1006.38636,459.286745 1004,457 C1003.32066,456.34 1002.64133,455.68 1001.94141,455 C994.854628,448.711559 986.865348,445.861735 978.074707,442.73877 C975.344379,441.766544 972.637671,440.740372 969.9375,439.6875 C969.183398,439.402617 968.429297,439.117734 967.652344,438.824219 C966,438 966,438 965,436 C973.25,436 981.5,436 990,436 C987.03,433.36 984.06,430.72 981,428 C978.792969,425.417969 978.792969,425.417969 977.1875,423.1875 C970.784499,414.88921 962.742798,407.762299 954,402 C957,401 957,401 960.3125,402.625 C961.018906,402.997539 961.725312,403.370078 962.453125,403.753906 C972.52955,408.683936 983.028759,411.109996 994,413 C993.526914,412.633906 993.053828,412.267812 992.566406,411.890625 C985.287175,405.93102 980.252533,398.550055 974.816406,390.945312 C966.768121,379.898646 958.31457,371.224842 946.457031,364.460938 C945.646211,363.978828 944.835391,363.496719 944,363 C944,362.67 944,362.34 944,362 Z" fill="#DCDCDC"></path>
                <path d="M595,361 C592.23443,363.153104 589.419974,364.956725 586.375,366.6875 C574.653245,373.672144 566.743108,382.248257 559.125,393.375 C554.231914,400.42205 549.074961,406.925039 543,413 C553.457984,410.751607 563.248661,407.579167 573.166748,403.554688 C574.026956,403.210508 574.887163,402.866328 575.773438,402.511719 C576.540913,402.196785 577.308389,401.881851 578.099121,401.557373 C580,401 580,401 582,402 C581.521677,402.357151 581.043354,402.714302 580.550537,403.082275 C578.341826,404.73661 576.139679,406.399481 573.9375,408.0625 C572.809248,408.90458 572.809248,408.90458 571.658203,409.763672 C563.95363,415.60047 557.831513,421.975081 551.992188,429.667969 C550,432 550,432 545,436 C552.92,436.33 560.84,436.66 569,437 C568,439 568,439 564.789062,440.078125 C563.401842,440.471581 562.013761,440.862015 560.625,441.25 C549.900227,444.454339 541.654292,448.880743 533.484375,456.65625 C530.416155,459.550798 527.219434,462.276041 524,465 C536.644409,463.956681 549.013123,462.050821 561.477539,459.677002 C562.625771,459.461326 563.774004,459.245649 564.957031,459.023438 C565.977727,458.826694 566.998423,458.629951 568.050049,458.427246 C571.07516,457.989114 573.947777,457.925549 577,458 C573.833405,461.343801 570.344275,464.099801 566.6875,466.875 C554.863353,476.03444 544.017637,486.02536 535,498 C537.411867,497.196044 539.439082,496.332232 541.6875,495.1875 C542.386172,494.834297 543.084844,494.481094 543.804688,494.117188 C544.529141,493.748516 545.253594,493.379844 546,493 C547.436542,492.268948 548.874008,491.539708 550.3125,490.8125 C551.265762,490.327168 551.265762,490.327168 552.238281,489.832031 C554,489 554,489 557,488 C554.900077,494.417527 552.483355,500.69809 550.0625,507 C549.619707,508.162734 549.176914,509.325469 548.720703,510.523438 C548.071982,512.213398 548.071982,512.213398 547.410156,513.9375 C547.019651,514.957148 546.629146,515.976797 546.226807,517.027344 C544.958264,520.101129 543.521585,523.044375 542,526 C550.443597,523.503732 558.707137,520.796025 566.875,517.5 C573.062614,515.02159 579.262943,512.905539 585.6875,511.125 C586.417593,510.921973 587.147686,510.718945 587.899902,510.509766 C593.86008,508.91671 599.742329,507.84219 605.9375,507.9375 C606.709648,507.946523 607.481797,507.955547 608.277344,507.964844 C609.130059,507.982246 609.130059,507.982246 610,508 C606.521193,511.63285 602.942917,514.63653 598.875,517.625 C587.859727,525.955418 579.43845,535.447444 572,547 C573.223965,546.38125 573.223965,546.38125 574.472656,545.75 C582.563461,541.805843 590.758543,538.49174 599.25,535.5 C600.261995,535.137773 601.273989,534.775547 602.31665,534.402344 C603.745455,533.909277 603.745455,533.909277 605.203125,533.40625 C606.481714,532.96249 606.481714,532.96249 607.786133,532.509766 C610,532 610,532 613,533 C611.5868,534.129352 610.169286,535.253306 608.75,536.375 C607.961094,537.001484 607.172188,537.627969 606.359375,538.273438 C604,540 604,540 601.765625,541.039062 C599.64302,541.934109 599.64302,541.934109 599,545 C597.46875,546.4375 597.46875,546.4375 595.5,548 C590.275146,552.401371 586.191739,557.634186 582,563 C587.729438,561.975437 592.995812,559.960493 598.4375,557.9375 C599.508308,557.539905 600.579116,557.14231 601.682373,556.732666 C609.083635,553.909596 615.797499,550.655453 622.488281,546.433594 C625,545 625,545 628,545 C615.953313,560.829463 601.301703,570.167591 582,575 C580.48074,575.093222 578.959329,575.157871 577.4375,575.1875 C572.005373,575.586635 568.974809,579.097119 565.042969,582.574219 C559.86602,586.701157 554.031048,589.312089 548,592 C547.120859,592.393164 546.241719,592.786328 545.335938,593.191406 C543,594 543,594 539,594 C539,594.66 539,595.32 539,596 C539.59168,596.060586 540.183359,596.121172 540.792969,596.183594 C541.583164,596.267383 542.373359,596.351172 543.1875,596.4375 C544.353457,596.559316 544.353457,596.559316 545.542969,596.683594 C548,597 548,597 550.308594,597.519531 C560.821854,599.396354 571.543117,598.081536 581.828125,595.65625 C584.671414,595.067983 587.111723,594.869702 590,595 C586.33059,598.723872 582.547101,602.28728 578.6875,605.8125 C576.454563,607.870945 574.226479,609.934574 572,612 C571.226562,612.716719 570.453125,613.433437 569.65625,614.171875 C554.105761,629.105281 543.811156,650.16098 539,671 C539.498867,670.515312 539.997734,670.030625 540.511719,669.53125 C550.712216,660.008344 562.763435,653.868696 575.226074,647.868652 C576.928786,647.034872 578.607748,646.153113 580.285156,645.269531 C583,644 583,644 586,644 C584.336298,647.653103 582.093724,650.768271 579.8125,654.0625 C574.265463,662.392622 570.973593,671.490954 568,681 C567.613281,682.206563 567.226562,683.413125 566.828125,684.65625 C565.355275,690.85619 565.671811,697.29311 565.6875,703.625 C565.671387,704.902461 565.655273,706.179922 565.638672,707.496094 C565.632922,718.84709 567.41696,729.504191 571.449219,740.132812 C572,742 572,742 572,746 C572.66,746 573.32,746 574,746 C573.953594,745.235586 573.907187,744.471172 573.859375,743.683594 C573.19251,723.891985 581.76011,708.48607 593,693 C594.166395,696.499185 593.44034,698.152717 592.506836,701.608887 C591.530166,706.21655 591.618061,710.869385 591.625,715.5625 C591.625886,716.649341 591.626772,717.736182 591.627686,718.855957 C591.863971,735.434308 594.425627,754.101947 601.6875,769.1875 C602.197969,770.26 602.708437,771.3325 603.234375,772.4375 C604.54032,775.072505 605.862165,777.695427 607.203125,780.3125 C607.573489,781.03929 607.943853,781.766079 608.325439,782.514893 C609.057976,783.946033 609.798524,785.373105 610.547607,786.795654 C611.42459,788.501121 612.220153,790.247986 613,792 C612.67,792.66 612.34,793.32 612,794 C597.89367,781.484933 587.535845,769.452815 582,751 C580.456088,759.319137 579.517554,767.555697 579,776 C559.975513,752.968138 549.574296,721.805062 552,692 C552.568784,687.630295 553.397218,683.329403 554.34375,679.027344 C555.070618,676.190509 555.070618,676.190509 555,674 C546.04419,679.640203 537.918385,685.491514 530.292969,692.847656 C528,695 528,695 526,696 C524.604762,667.13407 533.389954,636.140721 552.371094,613.785156 C553.549247,612.493991 554.764049,611.235951 556,610 C554.545938,609.814375 554.545938,609.814375 553.0625,609.625 C539.286395,607.603233 528.151792,602.238261 517,594 C519.425532,592.382978 521.256532,591.422216 523.921875,590.40625 C536.246365,585.561682 547.195497,579.874684 557.292969,571.199219 C560,569 560,569 562,569 C562.2475,568.443125 562.495,567.88625 562.75,567.3125 C564.215466,564.601388 566.055036,562.383767 568,560 C566.73543,560.740566 566.73543,560.740566 565.445312,561.496094 C564.349609,562.136758 563.253906,562.777422 562.125,563.4375 C560.48918,564.394629 560.48918,564.394629 558.820312,565.371094 C557.235462,566.286444 555.636977,567.181511 554,568 C554.053785,555.064598 559.237824,543.197368 567,533 C567.553008,532.261367 568.106016,531.522734 568.675781,530.761719 C569.112773,530.180352 569.549766,529.598984 570,529 C569.265234,529.363516 569.265234,529.363516 568.515625,529.734375 C556.182497,535.263019 541.470725,537.985663 528,537 C528.46142,533.954625 529.20498,531.523393 530.429688,528.675781 C532.052867,524.876249 533.131178,521.182666 534.125,517.1875 C535.887476,510.225049 535.887476,510.225049 537,508 C531.693813,509.418244 528.004552,511.883807 523.6875,515.125 C517.100207,520 517.100207,520 516,520 C516.439666,502.293465 526.161577,488.375313 538,476 C537.321228,475.985417 536.642456,475.970835 535.943115,475.955811 C523.020431,475.646279 510.56005,475.247233 498,472 C498,471.34 498,470.68 498,470 C499.835938,468.808594 499.835938,468.808594 502.375,467.4375 C516.180699,459.364676 526.235428,446.813459 531.804688,431.835938 C533.512729,429.212475 535.288818,428.940337 538.25,428.0625 C543.209514,426.426708 546.275664,424.623678 550,421 C549.388984,421.144375 548.777969,421.28875 548.148438,421.4375 C537.499834,423.597217 526.816255,423.187682 516,423 C516,422.34 516,421.68 516,421 C517.792969,419.414062 517.792969,419.414062 520.1875,417.625 C532.770269,408.151406 540.162147,397.443972 548.050781,383.992188 C550.666101,379.533925 553.38257,375.153599 556.1875,370.8125 C556.90293,369.705195 557.618359,368.597891 558.355469,367.457031 C560,365 560,365 561,364 C562.381481,363.867266 563.769067,363.796715 565.15625,363.753906 C566.444023,363.7046 566.444023,363.7046 567.757812,363.654297 C569.554594,363.594148 571.351471,363.536755 573.148438,363.482422 C578.311233,363.279434 583.089054,362.703188 588.101318,361.429932 C590.43076,360.90246 592.621232,360.846531 595,361 Z" fill="#080808"></path>
                <path d="M592,171 C601.560679,173.147254 610.188272,175.631701 619,180 C620.556782,180.711012 622.115575,181.417628 623.675781,182.121094 C647.479654,192.960874 668.447351,207.711532 688,225 C688.813801,225.719055 688.813801,225.719055 689.644043,226.452637 C700.097529,235.753142 709.86305,245.564287 718,257 C718.060586,255.83082 718.121172,254.661641 718.183594,253.457031 C718.26804,251.908844 718.352686,250.360667 718.4375,248.8125 C718.476816,248.043574 718.516133,247.274648 718.556641,246.482422 C718.77507,242.567489 719.086921,238.828793 720,235 C720.66,235 721.32,235 722,235 C722.195938,235.617461 722.391875,236.234922 722.59375,236.871094 C724.998116,243.680008 727.80243,249.942869 734,254 C737.209119,254.250294 737.209119,254.250294 740.707031,253.75 C742.050928,253.618885 743.395279,253.492354 744.73999,253.369873 C745.438894,253.303678 746.137797,253.237482 746.85788,253.169281 C752.605212,252.715098 758.389612,252.814064 764.151367,252.814697 C766.366732,252.812508 768.581598,252.794243 770.796875,252.775391 C783.998055,252.723259 797.223087,253.450563 809.898438,257.414062 C812.118011,258.134284 812.118011,258.134284 815,258 C816.629276,256.278903 816.629276,256.278903 818.25,253.9375 C826.196667,243.606833 835.932449,234.259217 846,226 C846.547046,225.544478 847.094092,225.088955 847.657715,224.619629 C862.057733,212.636397 877.058678,201.845588 893,192 C893.700767,191.566553 894.401533,191.133105 895.123535,190.686523 C904.223147,185.143975 913.545051,180.740721 923.5,176.9375 C924.986088,176.363948 924.986088,176.363948 926.502197,175.778809 C932.683515,173.514144 938.420514,172.296365 945,172 C957.193536,195.868197 966.109153,222.665729 966.132812,249.71875 C966.134248,250.772015 966.134248,250.772015 966.135712,251.846558 C966.136387,253.318767 966.13458,254.79098 966.130371,256.263184 C966.125013,258.494535 966.130339,260.725686 966.136719,262.957031 C966.136058,264.398438 966.134776,265.839845 966.132812,267.28125 C966.131685,268.570957 966.130557,269.860664 966.129395,271.189453 C965.995179,275.141983 965.490534,279.075732 965,283 C966.65,277.06 968.3,271.12 970,265 C970.66,265 971.32,265 972,265 C972.488952,282.135884 972.424178,296.939554 966,313 C972.27,313 978.54,313 985,313 C977.512349,320.487651 969.09947,324.149675 959,327 C958.204648,327.226875 957.409297,327.45375 956.589844,327.6875 C951.035341,329.098167 945.709965,329.214571 940,329 C940.447305,328.135039 940.894609,327.270078 941.355469,326.378906 C952.31263,304.069677 953.015896,280.328219 952,256 C951.959878,255.031914 951.919756,254.063828 951.878418,253.066406 C950.877832,233.423906 946.260456,213.483347 939.199219,195.160156 C938.287997,192.758924 937.533306,190.5034 937,188 C927.586776,190.822214 918.756427,194.575854 910,199 C909.301006,199.353042 908.602012,199.706084 907.881836,200.069824 C889.910415,209.289979 873.908202,221.426642 859,235 C858.122148,235.794062 857.244297,236.588125 856.339844,237.40625 C843.415127,249.695996 835.000992,263.735069 828,280 C826.011586,277.017379 824.463283,274.023593 822.875,270.8125 C822.336172,269.72582 821.797344,268.639141 821.242188,267.519531 C820.832266,266.688086 820.422344,265.856641 820,265 C816.422322,266.228881 814.296174,267.349375 811.9375,270.3125 C811.438633,270.928672 810.939766,271.544844 810.425781,272.179688 C809.72002,273.080742 809.72002,273.080742 809,274 C808.21625,274.969375 807.4325,275.93875 806.625,276.9375 C806.08875,277.618125 805.5525,278.29875 805,279 C805.33,275.7 805.66,272.4 806,269 C805.142773,268.939414 804.285547,268.878828 803.402344,268.816406 C801.687246,268.690723 801.687246,268.690723 799.9375,268.5625 C798.812148,268.481289 797.686797,268.400078 796.527344,268.316406 C793,268 793,268 789.865723,267.488525 C785.418108,266.926464 781.097738,266.856382 776.621094,266.867188 C775.731968,266.866231 774.842842,266.865274 773.926773,266.864288 C772.050058,266.86361 770.173341,266.865437 768.296631,266.869629 C765.470485,266.874938 762.6445,266.869694 759.818359,266.863281 C749.829667,266.859983 739.953073,267.075944 730,268 C730.33,268.66 730.66,269.32 731,270 C731.134155,272.672362 731.043185,275.322505 731,278 C730.484375,277.34 729.96875,276.68 729.4375,276 C728.230937,274.515 728.230937,274.515 727,273 C726.444414,272.302617 725.888828,271.605234 725.316406,270.886719 C724.716992,270.160977 724.117578,269.435234 723.5,268.6875 C722.932812,267.990117 722.365625,267.292734 721.78125,266.574219 C719.896658,264.55852 719.896658,264.55852 716,265 C711.967997,272.774079 711.967997,272.774079 709,281 C706.708587,278.708587 706.376702,277.317153 705.4375,274.25 C697.924325,252.939395 678.839577,234.080544 661,221 C659.96875,220.225273 658.9375,219.450547 657.875,218.652344 C640.809392,206.009143 622.186301,195.664509 602,189 C601.01,188.67 600.02,188.34 599,188 C583.086029,229.534336 574.560274,278.717748 592,321 C592.556875,322.107305 593.11375,323.214609 593.6875,324.355469 C595,327 595,327 595,329 C578.547169,329.982802 563.971617,323.739857 551,314 C551,313.67 551,313.34 551,313 C556.94,312.67 562.88,312.34 569,312 C568.38125,310.35 567.7625,308.7 567.125,307 C563.434205,297.157881 562.736513,288.982401 562.875,278.5 C562.884023,277.200625 562.893047,275.90125 562.902344,274.5625 C562.925783,271.374807 562.958596,268.187502 563,265 C565,266 565,266 565.777832,267.857666 C566.018726,268.648425 566.259619,269.439185 566.507812,270.253906 C566.77207,271.10791 567.036328,271.961914 567.308594,272.841797 C567.712715,274.188545 567.712715,274.188545 568.125,275.5625 C568.402148,276.464199 568.679297,277.365898 568.964844,278.294922 C569.65011,280.527945 570.328147,282.762912 571,285 C570.84064,284.025227 570.681279,283.050454 570.51709,282.046143 C569.911767,277.78291 569.786039,273.562946 569.726562,269.261719 C569.713989,268.431769 569.701416,267.601819 569.688461,266.746719 C569.455124,247.617145 569.811115,229.560243 575,211 C575.262324,210.058018 575.524648,209.116035 575.794922,208.145508 C579.541047,195.150856 584.462449,182.306327 592,171 Z" fill="#060606"></path>
                <path d="M944,362 C945.077656,362.180469 946.155313,362.360937 947.265625,362.546875 C950.809199,363.005015 954.053918,362.89742 957.609375,362.578125 C963.892902,362.152855 970.006117,361.791727 976,364 C981.445587,368.792765 984.058323,375.796508 986.831055,382.349121 C988.423835,385.961152 990.385907,389.215505 992.5625,392.5 C993.276641,393.585391 993.990781,394.670781 994.726562,395.789062 C1001.46424,405.30516 1009.35105,415.675526 1020,421 C1020,421.66 1020,422.32 1020,423 C1015.60418,423.029076 1011.20839,423.046824 1006.8125,423.0625 C1005.56662,423.070879 1004.32074,423.079258 1003.03711,423.087891 C1001.23403,423.092725 1001.23403,423.092725 999.394531,423.097656 C997.737079,423.105511 997.737079,423.105511 996.046143,423.113525 C993.242006,423.009019 990.725827,422.64098 988,422 C991.138388,424.824549 994.004114,426.403308 997.875,427.9375 C1003.78682,430.766415 1005.59841,435.003753 1008.375,440.730469 C1014.2298,452.510444 1025.85494,464.724872 1038,470 C1038,470.66 1038,471.32 1038,472 C1023.89923,474.764212 1010.35184,475.377527 996,475 C996.451655,475.427727 996.903311,475.855454 997.368652,476.296143 C1007.99084,486.593163 1017.72248,501.913083 1019,517 C1018.53906,519.25 1018.53906,519.25 1018,521 C1017.58492,520.575898 1017.16984,520.151797 1016.74219,519.714844 C1010.58357,513.852565 1003.63232,510.526733 996,507 C996.386719,507.931992 996.773438,508.863984 997.171875,509.824219 C1006,531.343838 1006,531.343838 1006,537 C991.916788,537.682669 977.293684,535.818533 964,531 C964.636152,531.821777 964.636152,531.821777 965.285156,532.660156 C972.767066,542.773068 981.380392,557.066675 981,570 C979.940391,569.4225 978.880781,568.845 977.789062,568.25 C976.401159,567.499782 975.013132,566.749794 973.625,566 C972.926328,565.618438 972.227656,565.236875 971.507812,564.84375 C967.957105,562.742753 967.957105,562.742753 964,562 C964.825,562.78375 965.65,563.5675 966.5,564.375 C969,567 969,567 969,569 C969.571055,569.255234 970.142109,569.510469 970.730469,569.773438 C973.248974,571.134558 975.150108,572.75018 977.3125,574.625 C989.350018,584.336087 1003.09824,589.416032 1018,593 C1018,593.66 1018,594.32 1018,595 C1006.94827,601.959136 995.919923,606.64416 983,609 C983.484688,609.559453 983.969375,610.118906 984.46875,610.695312 C991.104899,618.633167 996.00538,627.344208 1000.82422,636.445312 C1004.55695,643.316037 1008.65443,649.423612 1013.5625,655.5 C1014.09255,656.15855 1014.62259,656.8171 1015.1687,657.495605 C1019.08915,662.220911 1023.43283,667.216415 1029,670 C1029,670.66 1029,671.32 1029,672 C1006.19872,672.412779 1006.19872,672.412779 997,670 C997.636152,670.83918 997.636152,670.83918 998.285156,671.695312 C1009.5991,687.161848 1020.06571,709.284438 1019,729 C1018.53852,728.648086 1018.07703,728.296172 1017.60156,727.933594 C1015.41096,726.275493 1013.20567,724.637985 1011,723 C1010.27555,722.446992 1009.55109,721.893984 1008.80469,721.324219 C999.506569,714.468826 989.106416,709.383808 978.25,705.5 C966.203249,701.014033 957.085091,692.800737 948,684 C947.089277,683.158887 947.089277,683.158887 946.160156,682.300781 C945,681 945,681 945,679 C945.710273,679.284883 946.420547,679.569766 947.152344,679.863281 C953.989906,682.592679 960.827799,685.283086 967.804688,687.636719 C979.055824,691.438187 990.048604,695.365736 1000,702 C993.745356,684.888848 980.370614,669.287328 966.1875,658.1875 C957.639523,651.458241 950.404895,643.78022 944,635 C944.33,634.34 944.66,633.68 945,633 C946.044141,633.605859 947.088281,634.211719 948.164062,634.835938 C964.993488,644.469105 982.240119,652.893442 1001,658 C1000.49791,657.470679 999.99582,656.941357 999.478516,656.395996 C994.358186,650.842538 990.336132,645.114501 986.5,638.625 C985.371345,636.765191 984.239857,634.907098 983.105469,633.050781 C982.569702,632.173735 982.033936,631.296689 981.481934,630.393066 C972.83891,616.436078 961.875749,606.492073 948.575195,597.117676 C946.68998,595.780026 944.839166,594.400169 943,593 C944.50051,593.289033 946.000377,593.581399 947.5,593.875 C948.752969,594.118633 948.752969,594.118633 950.03125,594.367188 C952.291201,594.848914 954.529921,595.431434 956.753906,596.058594 C961.337447,597.216108 965.731862,597.259661 970.4375,597.1875 C971.629561,597.186533 971.629561,597.186533 972.845703,597.185547 C982.183079,597.388803 982.183079,597.388803 991,595 C990.46375,594.87625 989.9275,594.7525 989.375,594.625 C978.641622,591.800427 968.925201,586.237211 959.3125,580.8125 C955.506497,578.696158 951.711626,577.0663 947.625,575.5625 C930.691075,569.244766 916.676734,558.555445 903,547 C903.495,546.01 903.495,546.01 904,545 C904.749993,545.436992 904.749993,545.436992 905.515137,545.882812 C920.101973,554.253873 934.800213,559.583627 951,564 C950.380041,563.315105 949.760083,562.63021 949.121338,561.924561 C948.309148,561.025198 947.496958,560.125835 946.660156,559.199219 C945.854573,558.308074 945.048989,557.416929 944.218994,556.498779 C942.564511,554.635689 940.981372,552.76486 939.4375,550.8125 C936.269861,547.157532 932.699751,544.103017 929,541 C931,540 931,540 932.996094,540.481445 C933.801758,540.76085 934.607422,541.040254 935.4375,541.328125 C936.333398,541.633633 937.229297,541.939141 938.152344,542.253906 C939.561934,542.746973 939.561934,542.746973 941,543.25 C942.832808,543.881734 944.666141,544.511948 946.5,545.140625 C947.403633,545.450645 948.307266,545.760664 949.238281,546.080078 C953.462482,547.487149 957.725566,548.755222 962,550 C950.655889,534.391791 938.708911,523.073589 922.730469,512.277344 C922.159414,511.85582 921.588359,511.434297 921,511 C921,510.67 921,510.34 921,510 C940.535464,508.96577 957.682547,514.862019 975.644531,521.789062 C976.370757,522.067097 977.096982,522.345132 977.845215,522.631592 C979.196884,523.152229 980.545182,523.681743 981.88916,524.221924 C985.39192,525.587335 988.236254,526.292815 992,526 C987.368981,515.521997 982.715208,505.086653 977.388672,494.939453 C975.9106,492.077011 975,490.273033 975,487 C983.25,490.96 991.5,494.92 1000,499 C992.291069,489.363836 985.467965,480.943371 975.886719,473.339844 C969.985545,468.556619 964.319196,463.42418 959,458 C965.55935,458.410845 971.976031,459.273025 978.4375,460.4375 C979.169849,460.569146 979.902197,460.700791 980.656738,460.836426 C983.88641,461.422006 987.112477,462.0216 990.335938,462.640625 C997.287878,463.917884 1003.93663,464.225427 1011,464 C1008.73144,461.596229 1006.38636,459.286745 1004,457 C1003.32066,456.34 1002.64133,455.68 1001.94141,455 C994.854628,448.711559 986.865348,445.861735 978.074707,442.73877 C975.344379,441.766544 972.637671,440.740372 969.9375,439.6875 C968.806348,439.260176 968.806348,439.260176 967.652344,438.824219 C966,438 966,438 965,436 C973.25,436 981.5,436 990,436 C987.03,433.36 984.06,430.72 981,428 C978.792969,425.417969 978.792969,425.417969 977.1875,423.1875 C970.784499,414.88921 962.742798,407.762299 954,402 C957,401 957,401 960.3125,402.625 C961.018906,402.997539 961.725312,403.370078 962.453125,403.753906 C972.52955,408.683936 983.028759,411.109996 994,413 C993.526914,412.633906 993.053828,412.267812 992.566406,411.890625 C985.287175,405.93102 980.252533,398.550055 974.816406,390.945312 C966.768121,379.898646 958.31457,371.224842 946.457031,364.460938 C945.240801,363.737773 945.240801,363.737773 944,363 C944,362.67 944,362.34 944,362 Z" fill="#090808"></path>
                <path d="M872.25,372.8125 C873.420469,372.813145 874.590937,372.813789 875.796875,372.814453 C884.855335,372.8612 884.855335,372.8612 889,374 C891.413818,374.221176 893.831146,374.405722 896.25,374.5625 C897.513281,374.646289 898.776562,374.730078 900.078125,374.816406 C901.042344,374.876992 902.006562,374.937578 903,375 C902.361914,375.961641 901.723828,376.923281 901.066406,377.914062 C898.55956,382.305183 898.235517,386.400099 897.9375,391.375 C897.096551,404.248789 892.92737,418.119821 883,427 C871.234015,435.759534 860.247363,439.177189 845.75,439.1875 C844.413887,439.205869 844.413887,439.205869 843.050781,439.224609 C837.57315,439.236535 832.590344,438.641214 827.245605,437.460693 C824.375376,436.871856 821.614478,436.699382 818.6875,436.6875 C817.721992,436.670742 816.756484,436.653984 815.761719,436.636719 C811.56741,437.188445 808.948977,439.051023 806,442 C804.976953,423.092584 811.971322,406.318796 824,392 C829.796256,386.355744 836.000329,382.178745 843.1875,378.5625 C843.840088,378.232742 844.492676,377.902983 845.165039,377.563232 C854.226162,373.200258 862.299688,372.707 872.25,372.8125 Z" fill="#080706"></path>
                <path d="M712,390 C722.706689,399.859148 729.75836,413.636091 732,428 C732.066529,430.269954 732.085438,432.541687 732.0625,434.8125 C732.053477,435.973945 732.044453,437.135391 732.035156,438.332031 C732.023555,439.212461 732.011953,440.092891 732,441 C730.422188,440.01 730.422188,440.01 728.8125,439 C721.221692,435.231324 712.710701,436.627519 704.625,438 C687.260406,440.911554 672.262905,438.614259 657.78125,428.441406 C646.194499,419.149723 641.807298,406.189973 640,392 C639.777104,389.190052 639.574868,386.385932 639.441406,383.570312 C638.886979,380.34188 637.563015,377.859275 636,375 C663.955298,370.89647 689.405558,371.165284 712,390 Z" fill="#060909"></path>
                <path d="M932,200 C935.180734,207.925469 937.168325,215.732899 938.6875,224.125 C939.005576,225.797559 939.005576,225.797559 939.330078,227.503906 C941.434331,238.775268 942.186501,249.574639 942.185303,261.02832 C942.187489,263.362816 942.205696,265.696838 942.224609,268.03125 C942.255117,276.279397 941.743935,283.907287 940,292 C939.755108,294.058479 939.536044,296.12077 939.375,298.1875 C939.300234,299.10918 939.225469,300.030859 939.148438,300.980469 C939.099453,301.646914 939.050469,302.313359 939,303 C937.80375,303.2475 936.6075,303.495 935.375,303.75 C931.301786,304.746637 928.419264,306.557669 925,309 C924.34,309 923.68,309 923,309 C923,309.66 923,310.32 923,311 C924.65,311 926.3,311 928,311 C928.33,311.99 928.66,312.98 929,314 C924.95905,314.505904 920.917137,315.003676 916.875,315.5 C915.732891,315.643086 914.590781,315.786172 913.414062,315.933594 C912.305469,316.068945 911.196875,316.204297 910.054688,316.34375 C908.530774,316.532275 908.530774,316.532275 906.976074,316.724609 C903.965918,317.003154 901.021166,317.047267 898,317 C901.308002,313.385241 904.964285,310.862984 909.0625,308.25 C909.687051,307.838789 910.311602,307.427578 910.955078,307.003906 C915.630593,304 915.630593,304 919,304 C919,303.34 919,302.68 919,302 C909.76,302 900.52,302 891,302 C893.328096,299.671904 895.351991,297.941841 898.011719,296.082031 C898.769043,295.550293 899.526367,295.018555 900.306641,294.470703 C901.485166,293.649893 901.485166,293.649893 902.6875,292.8125 C903.484785,292.253691 904.28207,291.694883 905.103516,291.119141 C907.067159,289.743414 909.032693,288.37048 911,287 C902.35892,287.305339 894.376866,288.627936 886.006348,290.71582 C880.301591,292.10053 880.301591,292.10053 877,291 C885.325417,285.458645 893.794192,280.342744 902.569824,275.543945 C907.552607,272.818228 912.439735,269.984055 917.25,266.960938 C919,266 919,266 921,266 C921,265.34 921,264.68 921,264 C916.48326,264.119468 911.966684,264.243777 907.450195,264.372314 C905.918004,264.415269 904.385777,264.456966 902.853516,264.497314 C894.530774,264.717335 886.276066,265.021022 878,266 C881.55369,262.321041 885.27746,259.023611 889.3125,255.875 C890.219476,255.165492 890.219476,255.165492 891.144775,254.44165 C898.211703,248.97727 905.579666,243.968045 913,239 C913.715591,238.520146 914.431182,238.040293 915.168457,237.545898 C919.437919,234.68556 923.715549,231.837833 928,229 C922.104189,228.813043 916.920605,229.407868 911.1875,230.75 C910.406489,230.927568 909.625479,231.105137 908.820801,231.288086 C902.697905,232.727428 896.816328,234.591477 891,237 C896.212647,225.615164 917.724737,200 932,200 Z" fill="#C7918C"></path>
                <path d="M603,199 C608.160929,199.454794 611.38847,202.081525 615.375,205.125 C616.069644,205.651985 616.764287,206.17897 617.47998,206.721924 C627.885506,214.814719 638.624642,224.295985 645,236 C643.395833,235.5625 641.791667,235.125 640.1875,234.6875 C639.17043,234.41293 638.153359,234.138359 637.105469,233.855469 C635.22699,233.338001 633.352873,232.803748 631.488281,232.238281 C622.496537,229.570401 613.261096,228.353176 604,227 C605.027383,227.556875 606.054766,228.11375 607.113281,228.6875 C615.517977,233.29482 623.384977,238.150943 631,244 C633.020625,245.500281 635.041464,247.000273 637.0625,248.5 C652.483771,260.116022 652.483771,260.116022 658,266 C656.624769,265.856365 655.249826,265.709965 653.875,265.5625 C652.726445,265.440684 652.726445,265.440684 651.554688,265.316406 C649.781704,265.096816 648.015711,264.81549 646.259766,264.486328 C642.88123,263.982281 639.703482,263.886681 636.289062,263.902344 C635.045117,263.905566 633.801172,263.908789 632.519531,263.912109 C631.234336,263.920488 629.949141,263.928867 628.625,263.9375 C627.316602,263.942012 626.008203,263.946523 624.660156,263.951172 C621.440057,263.962924 618.220052,263.979355 615,264 C615,264.66 615,265.32 615,266 C615.845625,266.244922 616.69125,266.489844 617.5625,266.742188 C621.345885,268.126563 624.602164,270.00281 628,272.125 C629.324682,272.937566 630.650224,273.748733 631.976562,274.558594 C632.644619,274.967065 633.312676,275.375537 634.000977,275.796387 C637.090288,277.656463 640.231803,279.420584 643.375,281.1875 C648.750073,284.235411 653.934586,287.46225 659,291 C655.656306,292.114565 654.614871,291.869898 651.28125,291.039062 C650.347969,290.814766 649.414688,290.590469 648.453125,290.359375 C646.991328,289.995859 646.991328,289.995859 645.5,289.625 C637.989325,287.757592 630.732295,286.488455 623,286 C632.269291,292.779651 632.269291,292.779651 641.875,299.0625 C643.421875,300.021563 643.421875,300.021563 645,301 C645,301.33 645,301.66 645,302 C635.76,302 626.52,302 617,302 C617,302.66 617,303.32 617,304 C617.73823,304.108845 618.47646,304.21769 619.237061,304.329834 C622.155173,305.037638 623.79262,305.971748 626.207031,307.722656 C626.95791,308.26084 627.708789,308.799023 628.482422,309.353516 C629.251348,309.91748 630.020273,310.481445 630.8125,311.0625 C631.600762,311.630332 632.389023,312.198164 633.201172,312.783203 C635.139731,314.181315 637.072272,315.587011 639,317 C636.517816,318.241092 635.494112,317.918976 632.78125,317.476562 C631.930469,317.3425 631.079687,317.208438 630.203125,317.070312 C629.311094,316.923359 628.419062,316.776406 627.5,316.625 C620.677787,315.522008 613.885071,314.611965 607,314 C607,313.34 607,312.68 607,312 C609.97,311.01 609.97,311.01 613,310 C607.569383,306.256277 602.343397,303.806106 596,302 C596.20625,301.030625 596.4125,300.06125 596.625,299.0625 C597.177806,295.238926 596.510804,292.198637 595.564209,288.490967 C590.00693,263.955735 594.380997,236.136049 600,212 C600.309289,210.640783 600.617917,209.281415 600.925781,207.921875 C601.605565,204.945001 602.295876,201.971192 603,199 Z" fill="#C8938E"></path>
                <path d="M905,629 C907,629 907,629 908.339844,630.328125 C908.86707,630.962344 909.394297,631.596563 909.9375,632.25 C913.039337,635.894658 916.204846,639.471145 919.4375,643 C919.909377,643.515464 920.381255,644.030928 920.867432,644.562012 C923.637592,647.570214 926.464383,650.502898 929.375,653.375 C930.006641,654.00793 930.638281,654.640859 931.289062,655.292969 C932.766701,656.767234 934.257181,658.228608 935.75,659.6875 C940.272452,665.237085 942.353963,673.960068 942,681 C938.174755,679.220595 934.667521,676.962686 931.125,674.6875 C930.525586,674.30916 929.926172,673.93082 929.308594,673.541016 C925.273766,670.9547 921.627058,668.133468 918,665 C918.57521,669.349622 919.663519,672.931566 921.4375,676.9375 C924.506015,683.889748 926.372122,690.173688 926.3125,697.8125 C926.309761,698.53373 926.307021,699.254961 926.304199,699.998047 C926.196813,705.740127 925.54614,711.334904 924.625,717 C924.499075,717.783508 924.373149,718.567017 924.243408,719.374268 C923.90489,721.264699 923.461801,723.135847 923,725 C922.01,725.495 922.01,725.495 921,726 C920.721563,724.112813 920.721563,724.112813 920.4375,722.1875 C918.481876,713.442281 912.88475,706.302383 906.382812,700.339844 C905,699 905,699 904,697 C903.89043,698.255547 903.780859,699.511094 903.667969,700.804688 C901.798527,721.086711 896.113005,737.797655 882,753 C881.279414,753.788906 880.558828,754.577812 879.816406,755.390625 C873.529543,761.980065 866.317768,768.141642 858,772 C858.375117,771.466328 858.750234,770.932656 859.136719,770.382812 C862.969967,764.801911 866.163374,759.14442 869,753 C869.349336,752.289727 869.698672,751.579453 870.058594,750.847656 C879.506446,729.930038 877.434822,706.349831 877,684 C885.171398,690.283109 889.007021,698.748055 890.4375,708.8125 C890.650911,710.87248 890.848266,712.934561 891,715 C900.779475,698.743488 905.648197,682.02936 906,663 C908,663 908,663 910.625,665.5 C911.40875,666.325 912.1925,667.15 913,668 C912.843862,667.422742 912.687725,666.845483 912.526855,666.250732 C912.032367,664.138272 911.760188,662.146633 911.570312,659.988281 C910.639851,649.240634 910.639851,649.240634 907.730469,638.902344 C906.495117,635.685143 905.791757,632.349741 905,629 Z" fill="#DCDBDB"></path>
                <path d="M576,607 C576.495,608.485 576.495,608.485 577,610 C576.01,610.33 575.02,610.66 574,611 C573.291975,612.311839 572.635721,613.651638 572,615 C570.918378,616.513044 569.834148,618.024459 568.724854,619.517334 C564.441545,625.282295 560.574311,631.171083 557.0625,637.4375 C556.697615,638.086865 556.332729,638.73623 555.956787,639.405273 C552.868598,645.021211 549.970902,650.592048 549,657 C550.876401,655.919096 552.751054,654.835156 554.625,653.75 C555.669141,653.146719 556.713281,652.543437 557.789062,651.921875 C560.99779,650.0546 560.99779,650.0546 563.90625,647.957031 C567.449573,645.715611 570.939897,644.327903 574.875,642.9375 C575.878535,642.573018 575.878535,642.573018 576.902344,642.201172 C578.250648,641.71147 579.60059,641.226254 580.952148,640.745605 C582.358721,640.233484 583.757644,639.700006 585.149414,639.148926 C588.694996,637.748922 591.135944,637 595,637 C595.20625,636.21625 595.4125,635.4325 595.625,634.625 C598.456323,627.160602 603.090637,620.273075 608,614 C608.66,614 609.32,614 610,614 C608.825085,617.720565 607.476481,621.328937 606,624.9375 C602.642412,633.350192 601.515425,640.980058 601,650 C601.331289,649.584922 601.662578,649.169844 602.003906,648.742188 C606.213076,643.699623 610.843186,639.17745 615.625,634.6875 C616.270256,634.076968 616.915513,633.466436 617.580322,632.837402 C620.871878,629.776811 623.998525,627.123388 628,625 C627.021136,627.521591 626.009196,629.981274 624.816406,632.410156 C618.911634,644.900314 617.907888,659.350378 617,673 C617.66,673 618.32,673 619,673 C619.208828,672.310352 619.417656,671.620703 619.632812,670.910156 C621.432006,667.080445 623.965887,664.468698 626.875,661.4375 C627.404805,660.873535 627.934609,660.30957 628.480469,659.728516 C629.976308,658.141738 631.486759,656.570157 633,655 C633.745078,654.207227 634.490156,653.414453 635.257812,652.597656 C637,651 637,651 639,651 C638.979053,651.814526 638.958105,652.629053 638.936523,653.468262 C638.478649,674.011761 639.252597,691.686731 647.801025,710.698486 C648.58388,712.444141 649.298614,714.220048 650,716 C649.67,716.66 649.34,717.32 649,718 C640.270071,707.729496 627.184019,692.279671 628,678 C623.931858,681.726162 621.30975,685.480993 618.6875,690.3125 C618.328496,690.957676 617.969492,691.602852 617.599609,692.267578 C616.725545,693.840894 615.861692,695.419875 615,697 C613,696 613,696 612.148438,693.71875 C610.174346,685.503338 609.708611,677.679606 609.6875,669.25 C609.682183,668.19748 609.676865,667.144961 609.671387,666.060547 C609.730237,659.489999 610.449637,653.38604 612,647 C606.217708,653.119689 600.962308,659.10874 596.375,666.199219 C595.92125,666.793477 595.4675,667.387734 595,668 C594.34,668 593.68,668 593,668 C592.505,655.13 592.505,655.13 592,642 C579.643045,662.594925 571.783761,679.902843 571.875,704.1875 C571.871133,705.228418 571.867266,706.269336 571.863281,707.341797 C571.827098,715.232714 571.827098,715.232714 573,723 C573.99,723.66 574.98,724.32 576,725 C575.34,731.93 574.68,738.86 574,746 C573.34,746 572.68,746 572,746 C571.015302,742.626589 570.038239,739.251012 569.0625,735.875 C568.645811,734.448008 568.645811,734.448008 568.220703,732.992188 C567.953223,732.064062 567.685742,731.135937 567.410156,730.179688 C567.164026,729.331323 566.917896,728.482959 566.664307,727.608887 C562.203831,710.091562 563.162582,688.70567 570,672 C570.686426,670.147617 570.686426,670.147617 571.386719,668.257812 C574.5303,660.248139 578.702633,653.741019 584,647 C584.66,646.01 585.32,645.02 586,644 C568.982221,651.31821 552.307451,658.766479 539,672 C537.358471,668.716941 539.092533,665.627215 540.1875,662.3125 C545.928763,645.165986 554.307056,628.976269 567,616 C567.886875,615.083477 568.77375,614.166953 569.6875,613.222656 C571.76413,611.116823 573.861897,609.043076 576,607 Z" fill="#DCDCDC"></path>
                <path d="M874.1875,382.8125 C875.089199,382.813145 875.990898,382.813789 876.919922,382.814453 C883.577199,382.859066 883.577199,382.859066 887,384 C887.574883,398.372075 887.228902,410.808378 877,422 C876.253633,422.822422 875.507266,423.644844 874.738281,424.492188 C871.707219,427.268139 868.814979,428.890956 865.125,430.6875 C863.951953,431.268867 862.778906,431.850234 861.570312,432.449219 C850.990001,437.044825 837.190228,438.380512 826.125,434.375 C821.884261,432.262045 819.409124,430.095511 817,426 C815.747247,419.485687 818.554204,414.368104 822,409 C826.342002,403.436809 830.820779,398.485715 837,395 C837,397.31 837,399.62 837,402 C837.763125,401.938125 838.52625,401.87625 839.3125,401.8125 C842,402 842,402 843.875,403.125 C845,405 845,405 844.8125,408.125 C844.544375,409.07375 844.27625,410.0225 844,411 C843.34,411.33 842.68,411.66 842,412 C842.531151,416.514784 844.366203,419.346669 847,423 C851.840005,421.861175 853.83394,419.06427 856.667969,415.265625 C861.391422,407.231598 861.217814,396.996254 859,388.125 C858.505,386.578125 858.505,386.578125 858,385 C863.455982,382.718407 868.383564,382.732649 874.1875,382.8125 Z" fill="#F5AE32"></path>
                <path d="M658.105469,382.734375 C658.924668,382.731797 659.743867,382.729219 660.587891,382.726562 C661.874697,382.738164 661.874697,382.738164 663.1875,382.75 C664.026035,382.742266 664.86457,382.734531 665.728516,382.726562 C670.868759,382.742613 675.132317,383.340113 680,385 C680.24954,386.434104 680.473926,387.872601 680.6875,389.3125 C680.815117,390.113008 680.942734,390.913516 681.074219,391.738281 C680.978969,394.640878 680.039,395.059079 678,397 C676.493201,404.489678 679.25511,411.055498 683,417.375 C684.906546,420.172901 684.906546,420.172901 688,422 C690.517498,422.147689 690.517498,422.147689 693,421 C695.313081,418.044396 696.81355,415.559349 698,412 C697.01,411.67 696.02,411.34 695,411 C694.375,408.125 694.375,408.125 694,405 C696,403 696,403 699.125,402.875 C700.07375,402.91625 701.0225,402.9575 702,403 C702,400.36 702,397.72 702,395 C710.1272,401.60335 719.499887,409.499359 721.410156,420.324219 C721.683162,424.559309 721.646275,426.206039 718.863281,429.625 C710.301429,436.726782 697.612226,436.968007 687,436 C675.88697,434.111409 664.819111,428.045759 658,419 C653.352483,410.643741 651.819527,403.79183 651.8125,394.375 C651.800254,393.503594 651.788008,392.632187 651.775391,391.734375 C651.773457,390.901641 651.771523,390.068906 651.769531,389.210938 C651.765422,388.450874 651.761313,387.690811 651.75708,386.907715 C652.264262,382.924683 654.663009,382.744855 658.105469,382.734375 Z" fill="#39DAD8"></path>
                <path d="M863,694 C863.66,694 864.32,694 865,694 C869.886709,711.77611 863.295489,731.804015 856,748 C855.01,748.495 855.01,748.495 854,749 C853.01,744.38 852.02,739.76 851,735 C850.481797,735.83918 849.963594,736.678359 849.429688,737.542969 C837.884279,754.80037 819.684325,765.172206 801,773 C800.34,773 799.68,773 799,773 C799.309477,771.062015 799.622688,769.124626 799.9375,767.1875 C800.198535,765.569082 800.198535,765.569082 800.464844,763.917969 C801,761 801,761 802,758 C801.34,758 800.68,758 800,758 C799.67,758.99 799.34,759.98 799,761 C792.528429,765.627981 785.320498,769.88201 778,773 C777.01,772.67 776.02,772.34 775,772 C775.52207,771.622305 776.044141,771.244609 776.582031,770.855469 C795.459655,756.738577 808.127761,737.741588 811.554688,714.1875 C812.070143,710.462245 812.543114,706.73286 813,703 C817.41725,709.625875 817.324751,716.981474 817.25,724.6875 C817.246133,725.651235 817.242266,726.614971 817.238281,727.60791 C817.150289,734.895411 816.509693,741.855919 815,749 C837.47015,734.663354 853.288469,719.328063 863,694 Z" fill="#DDDDDD"></path>
                <path d="M721,773 C721.66,773 722.32,773 723,773 C723.52207,774.185938 724.044141,775.371875 724.582031,776.59375 C729.695165,787.93208 735.618598,797.997166 743,808 C743.601348,806.98293 743.601348,806.98293 744.214844,805.945312 C754.605905,788.933189 754.605905,788.933189 763,785 C762.989526,786.022468 762.979053,787.044937 762.968262,788.098389 C762.93159,791.954472 762.908931,795.81054 762.890137,799.666748 C762.880185,801.324001 762.866619,802.981237 762.849121,804.638428 C762.720731,817.126257 763.080427,829.17104 767.125,841.125 C769,846.722628 769,846.722628 769,850 C758.184467,849.599425 750.968298,843.289728 743.128906,836.34375 C741,834 741,834 739.464844,830.78125 C738.981445,829.863438 738.498047,828.945625 738,828 C736.679206,827.62001 735.344087,827.286911 734,827 C723.619693,814.457129 720.61317,799.705644 720.875,783.875 C720.884023,782.823125 720.893047,781.77125 720.902344,780.6875 C720.925641,778.124751 720.958349,775.562505 721,773 Z" fill="#DDDDDD"></path>
                <path d="M761.75,469.0625 C769.799417,470.862527 778.059379,469.432603 786.125,468.25 C790,468 790,468 792.5625,469.4375 C793.036875,469.953125 793.51125,470.46875 794,471 C793.894531,473.257812 793.894531,473.257812 793,476 C790.199219,477.992188 790.199219,477.992188 786.6875,479.875 C781.362598,482.915847 778.047013,485.074435 776,491 C774.928267,498.100233 777.786184,504.770087 781.761719,510.570312 C784.30365,513.329616 786.794844,514.919789 790.0625,516.75 C791.105352,517.342969 792.148203,517.935938 793.222656,518.546875 C797.86316,520.974818 802.052853,521.288951 807.1875,521.5625 C808.311885,521.627275 808.311885,521.627275 809.458984,521.693359 C811.305784,521.799227 813.152868,521.900098 815,522 C811.149242,525.850758 805.98042,526.165484 800.75,526.375 C790.262365,526.089622 782.772963,521.659245 774.858154,515.178223 C772.992535,513.655976 772.992535,513.655976 770,512 C767.406815,512.302012 767.406815,512.302012 765,514 C764.450859,514.32291 763.901719,514.64582 763.335938,514.978516 C760.791906,516.484778 758.290904,518.056566 755.791016,519.634766 C746.744115,525.211368 738.375409,527.646929 727.675781,525.542969 C726.096106,525.097584 724.542448,524.56089 723,524 C723,523.34 723,522.68 723,522 C724.038984,521.913633 725.077969,521.827266 726.148438,521.738281 C739.262056,520.487865 748.866257,517.026654 758,507 C761.089142,502.711838 762.7844,498.33502 762.429688,493.003906 C761.295053,487.712386 758.759655,484.161422 754.253906,481.1875 C752.282562,480.039045 750.311209,478.890607 748.339844,477.742188 C746,476 746,476 745.066406,474.007812 C744.8125,472.0625 744.8125,472.0625 745,469 C749.941287,466.529357 756.570888,467.793446 761.75,469.0625 Z" fill="#0C0B0B"></path>
                <path d="M647,283 C647.598447,283.384141 648.196895,283.768281 648.813477,284.164062 C652.257015,286.375751 655.647622,288.652711 659,291 C655.656306,292.114565 654.614871,291.869898 651.28125,291.039062 C649.881328,290.702617 649.881328,290.702617 648.453125,290.359375 C646.991328,289.995859 646.991328,289.995859 645.5,289.625 C637.989325,287.757592 630.732295,286.488455 623,286 C632.269291,292.779651 632.269291,292.779651 641.875,299.0625 C642.90625,299.701875 643.9375,300.34125 645,301 C645,301.33 645,301.66 645,302 C635.76,302 626.52,302 617,302 C617,302.66 617,303.32 617,304 C618.107345,304.163268 618.107345,304.163268 619.237061,304.329834 C622.155173,305.037638 623.79262,305.971748 626.207031,307.722656 C626.95791,308.26084 627.708789,308.799023 628.482422,309.353516 C629.251348,309.91748 630.020273,310.481445 630.8125,311.0625 C631.600762,311.630332 632.389023,312.198164 633.201172,312.783203 C635.139731,314.181315 637.072272,315.587011 639,317 C636.517816,318.241092 635.494112,317.918976 632.78125,317.476562 C631.930469,317.3425 631.079687,317.208438 630.203125,317.070312 C629.311094,316.923359 628.419062,316.776406 627.5,316.625 C620.677787,315.522008 613.885071,314.611965 607,314 C607,313.34 607,312.68 607,312 C608.98,311.34 610.96,310.68 613,310 C608.143101,306.808323 603.407471,304.140457 598,302 C600.604266,298.861997 603.552646,297.756596 607.3125,296.3125 C608.977324,295.657012 608.977324,295.657012 610.675781,294.988281 C613.980162,294.005898 616.576949,293.808392 620,294 C616.256775,289.970486 612.352789,287.075078 607.6875,284.1875 C607.042324,283.780801 606.397148,283.374102 605.732422,282.955078 C604.158633,281.964174 602.579828,280.981246 601,280 C615.844718,270.103521 633.232773,273.928395 647,283 Z" fill="#0C0B0B"></path>
                <path d="M930,278 C931.658399,278.372294 933.322013,278.729357 935,279 C931.846656,281.372445 928.679836,283.72567 925.5,286.0625 C924.561563,286.754727 923.623125,287.446953 922.65625,288.160156 C920.474018,289.671673 918.408117,290.903852 916,292 C916,292.66 916,293.32 916,294 C917.051875,294.061875 918.10375,294.12375 919.1875,294.1875 C925.417453,294.949437 931.349695,297.33664 937,300 C937.495,300.99 937.495,300.99 938,302 C936.063749,302.981634 934.125955,303.960225 932.1875,304.9375 C931.108555,305.482773 930.029609,306.028047 928.917969,306.589844 C926,308 926,308 923,309 C923,309.66 923,310.32 923,311 C924.65,311 926.3,311 928,311 C928.33,311.99 928.66,312.98 929,314 C924.95905,314.505904 920.917137,315.003676 916.875,315.5 C915.732891,315.643086 914.590781,315.786172 913.414062,315.933594 C911.751172,316.136621 911.751172,316.136621 910.054688,316.34375 C909.038745,316.469434 908.022803,316.595117 906.976074,316.724609 C903.965918,317.003154 901.021166,317.047267 898,317 C901.308002,313.385241 904.964285,310.862984 909.0625,308.25 C909.687051,307.838789 910.311602,307.427578 910.955078,307.003906 C915.630593,304 915.630593,304 919,304 C919,303.34 919,302.68 919,302 C909.76,302 900.52,302 891,302 C893.328096,299.671904 895.351991,297.941841 898.011719,296.082031 C898.769043,295.550293 899.526367,295.018555 900.306641,294.470703 C901.092324,293.923496 901.878008,293.376289 902.6875,292.8125 C903.484785,292.253691 904.28207,291.694883 905.103516,291.119141 C907.067159,289.743414 909.032693,288.37048 911,287 C902.35892,287.305339 894.376866,288.627936 886.006348,290.71582 C880.301591,292.10053 880.301591,292.10053 877,291 C880.998845,288.356086 885.023896,285.762185 889.084961,283.214844 C890.815521,282.117028 892.52263,280.982456 894.226562,279.84375 C905.506342,272.875988 917.854823,272.869004 930,278 Z" fill="#0B0A0A"></path>
                <path d="M837,774 C835.522047,777.29351 833.627234,779.802101 831.3125,782.5625 C825.168923,790.13326 820.156365,798.188505 816,807 C814.5,805.75 814.5,805.75 813,804 C813,802.68 813,801.36 813,800 C803.693205,805.751088 797.609269,814.590443 792,823.8125 C791.626414,824.421985 791.252827,825.03147 790.86792,825.659424 C788.486079,829.716212 787.112254,833.475675 786,838 C785.34,838 784.68,838 784,838 C780.252389,830.504778 782.259059,817.168156 784.644043,809.428467 C786.2474,804.802858 787.839929,800.780965 791,797 C791,799.64 791,802.28 791,805 C791.461484,804.310352 791.922969,803.620703 792.398438,802.910156 C802.107368,788.922389 818.619819,774 837,774 Z" fill="#DCDCDC"></path>
                <path d="M635,536 C635.495,536.99 635.495,536.99 636,538 C630.726757,553.111384 622.040561,563.12132 609,572 C611.970719,570.617652 614.46949,568.998466 617.0625,567 C620.759954,564.161264 623.7822,561.881686 628.394531,560.886719 C629.69439,560.596438 629.69439,560.596438 631.020508,560.300293 C631.941865,560.098071 632.863223,559.89585 633.8125,559.6875 C642.510252,557.703985 650.662029,555.184186 659,552 C661.991416,550.971445 664.993818,549.984784 668,549 C659.832818,562.339731 644.596746,568.154709 630,571.75 C615.822692,575.040038 599.585669,577.615351 585,576 C584.01,575.34 583.02,574.68 582,574 C583.076367,573.648086 584.152734,573.296172 585.261719,572.933594 C602.229906,567.255417 617.946813,560.392736 627,544 C627.33,543.01 627.66,542.02 628,541 C629.628906,539.613281 629.628906,539.613281 631.5625,538.3125 C632.523496,537.657012 632.523496,537.657012 633.503906,536.988281 C633.997617,536.662148 634.491328,536.336016 635,536 Z" fill="#DBDBDB"></path>
                <path d="M667,744 C667.33,744 667.66,744 668,744 C668.01418,744.969375 668.028359,745.93875 668.042969,746.9375 C668.33136,756.638927 670.034335,765.041206 673.33252,774.155273 C673.941231,775.83758 674.517331,777.531595 675.089844,779.226562 C681.362133,796.860402 691.096943,814.426655 704,828 C703.67,828.66 703.34,829.32 703,830 C686.142186,821.903555 675.739936,813.20347 668,796 C667.543672,795.042227 667.087344,794.084453 666.617188,793.097656 C663.589143,785.379318 663.624651,777.643631 663.5625,769.4375 C663.552187,768.301514 663.541875,767.165527 663.53125,765.995117 C663.611571,758.286541 664.801742,751.383633 667,744 Z" fill="#DDDDDD"></path>
                <path d="M623,717 C623.33,717 623.66,717 624,717 C624.170156,718.11375 624.340312,719.2275 624.515625,720.375 C628.84329,747.980627 637.754894,772.630094 655.285156,794.8125 C657,797 657,797 658,799 C643.507811,793.630592 631.679268,783.118551 625.135254,769.154785 C618.334419,753.853865 616.785692,737.336947 621,721 C622.070312,718.671875 622.070312,718.671875 623,717 Z" fill="#DCDBDC"></path>
                <path d="M592,475 C592.66,475.33 593.32,475.66 594,476 C593.249766,476.764414 592.499531,477.528828 591.726562,478.316406 C586.113809,484.147659 580.976874,490.056038 576.5,496.8125 C575.905662,497.707875 575.905662,497.707875 575.299316,498.621338 C572.522749,502.928516 570.232214,507.388449 568,512 C569.164023,511.510801 569.164023,511.510801 570.351562,511.011719 C586.643751,504.420965 604.417872,501.441837 622,502 C614.6,508 614.6,508 611,508 C611,508.66 611,509.32 611,510 C610.01,509.505 610.01,509.505 609,509 C590.977427,507.586465 571.962862,516.172227 555.660889,522.90332 C553.795469,523.657834 551.899659,524.336391 550,525 C549.34,524.67 548.68,524.34 548,524 C548.70125,523.34 549.4025,522.68 550.125,522 C555.213177,516.826546 558.896819,511.334927 562.171875,504.873779 C569.360177,490.701808 577.761068,482.119466 592,475 Z" fill="#D9D9D9"></path>
                <path d="M555,328 C555.920391,328.531094 556.840781,329.062187 557.789062,329.609375 C566.350134,334.429962 574.368227,337.797385 584,340 C584.774727,340.185625 585.549453,340.37125 586.347656,340.5625 C590.154847,341.19049 593.962058,341.365621 597.8125,341.5625 C598.994893,341.627275 598.994893,341.627275 600.201172,341.693359 C602.133942,341.798783 604.06695,341.899831 606,342 C606,342.66 606,343.32 606,344 C601.802924,345.980091 597.603669,347.955456 593.402344,349.926514 C591.974003,350.597425 590.546262,351.269615 589.119141,351.943115 C587.065373,352.912076 585.009481,353.876392 582.953125,354.839844 C581.999773,355.291451 581.999773,355.291451 581.027161,355.752182 C572.076241,359.930254 563.223655,360.429962 553.8125,357.125 C549.164894,355.329787 549.164894,355.329787 548,353 C549.001602,352.818242 550.003203,352.636484 551.035156,352.449219 C552.377684,352.195735 553.720127,351.941804 555.0625,351.6875 C555.719277,351.569551 556.376055,351.451602 557.052734,351.330078 C561.707455,350.435821 565.699191,348.996605 570,347 C569.336133,346.443125 568.672266,345.88625 567.988281,345.3125 C562.714776,340.75496 557.931352,336.433547 555,330 C555,329.34 555,328.68 555,328 Z" fill="#0D0C0C"></path>
                <path d="M980,328 C980,333.991418 974.843084,339.327992 970.8125,343.5 C968,346 968,346 965,347 C971.831023,350.553512 978.388985,352.021257 986,353 C986,353.66 986,354.32 986,355 C976.144172,358.852889 967.708737,361.123727 957.5625,357.125 C955.352791,356.115266 953.176199,355.077461 951,354 C950.18064,353.597974 949.361279,353.195947 948.51709,352.781738 C942.655882,349.897885 936.81997,346.966113 931,344 C931,343.67 931,343.34 931,343 C931.648479,342.905012 932.296958,342.810024 932.965088,342.712158 C949.783137,340.203224 965.668565,337.812818 980,328 Z" fill="#0D0D0D"></path>
                <path d="M932,626 C940.467489,628.822496 944.953143,633.989498 950.094238,640.913818 C956.573777,649.564186 964.283013,656.641232 973,663 C972.34,663.66 971.68,664.32 971,665 C961.044951,662.224073 951.297606,655.297606 944,648 C944.121172,648.605859 944.242344,649.211719 944.367188,649.835938 C945.578125,655.890625 946.789062,661.945312 948,668 C944.15769,666.355587 942.722056,664.495006 940.9375,660.667969 C939.340675,656.123672 938.583684,651.424246 937.71875,646.695312 C936.806579,642.005562 935.459177,637.541485 934,633 C933.318828,630.670559 932.660044,628.33554 932,626 Z" fill="#DCDBDB"></path>
                <path d="M946,481 C960.398643,485.194387 967.851292,497.907366 974.6875,510.3125 C975.044006,510.982168 975.400513,511.651836 975.767822,512.341797 C978.11288,516.690477 980.722256,520.297469 984,524 C982,525 982,525 978.917969,524.074219 C977.071387,523.387793 977.071387,523.387793 975.1875,522.6875 C973.96418,522.237617 972.740859,521.787734 971.480469,521.324219 C968.641198,520.243957 965.814863,519.14203 963,518 C964.485,517.505 964.485,517.505 966,517 C961.228726,505.028122 955.515426,494.780287 947.285156,484.777344 C946,483 946,483 946,481 Z" fill="#D6D5D5"></path>
                <path d="M635,536 C635.495,536.99 635.495,536.99 636,538 C630.729273,553.104173 622.195479,563.485502 608.652344,571.773438 C608.10707,572.178203 607.561797,572.582969 607,573 C607,573.66 607,574.32 607,575 C587.471831,577.647887 587.471831,577.647887 582,574 C583.076367,573.648086 584.152734,573.296172 585.261719,572.933594 C602.229906,567.255417 617.946813,560.392736 627,544 C627.33,543.01 627.66,542.02 628,541 C629.628906,539.613281 629.628906,539.613281 631.5625,538.3125 C632.523496,537.657012 632.523496,537.657012 633.503906,536.988281 C633.997617,536.662148 634.491328,536.336016 635,536 Z" fill="#D5D5D5"></path>
                <path d="M917,477 C918.461797,477.307441 918.461797,477.307441 919.953125,477.621094 C927.977648,479.509907 939.079054,483.079054 945,489 C941.895185,488.50002 939.016554,487.699175 936.058594,486.660156 C935.307715,486.401699 934.556836,486.143242 933.783203,485.876953 C932.27283,485.352536 930.767086,484.814489 929.267578,484.259766 C914.18895,479.174672 897.204099,479.647901 881.473633,479.684326 C878.633074,479.687491 875.793557,479.663876 872.953125,479.638672 C859.757257,479.595676 847.019217,480.879661 834,483 C835,481 835,481 836.847412,480.345703 C838.050228,480.066299 838.050228,480.066299 839.277344,479.78125 C840.173645,479.572019 841.069946,479.362788 841.993408,479.147217 C842.964958,478.933635 843.936509,478.720054 844.9375,478.5 C845.938054,478.279329 846.938608,478.058657 847.969482,477.831299 C870.625973,472.992941 894.321687,471.677033 917,477 Z" fill="#DBDBDB"></path>
                <path d="M594,700 C595.998759,703.104792 596.162722,705.688415 596.174072,709.328369 C596.273693,724.976026 602.194622,739.610114 609.5979,753.203369 C610.449176,754.775902 611.232037,756.385144 612,758 C611.67,758.66 611.34,759.32 611,760 C606.117454,756.034481 602.010403,752.076788 598.421875,746.894531 C597.027132,744.903513 597.027132,744.903513 594.988037,743.221436 C589.22097,736.777306 590.662946,724.181289 590.6875,716 C590.671387,714.895273 590.655273,713.790547 590.638672,712.652344 C590.638027,711.591445 590.637383,710.530547 590.636719,709.4375 C590.633738,708.487461 590.630757,707.537422 590.627686,706.558594 C591.059301,703.592473 592.029973,702.213879 594,700 Z" fill="#D9D9D9"></path>
                <path d="M701,481 C696.610203,482.304603 692.629408,481.631394 688.15625,481.082031 C677.877545,479.943699 667.699208,479.660496 657.36377,479.684326 C654.501244,479.687499 651.639744,479.663849 648.777344,479.638672 C633.076001,479.584891 617.219541,480.505683 602.410156,486.132812 C599.953853,487.016604 597.567914,487.549811 595,488 C597.657703,484.72898 601.11518,483.47899 604.9375,482 C605.607732,481.737998 606.277964,481.475996 606.968506,481.206055 C612.878871,478.950608 618.789307,477.230728 625,476 C626.473398,475.692559 626.473398,475.692559 627.976562,475.378906 C651.668842,471.199611 678.238075,473.228597 701,481 Z" fill="#D9D9D9"></path>
                <path d="M690.5625,493.9375 C692.504795,493.944268 692.504795,493.944268 694.486328,493.951172 C697.657601,493.962874 700.828775,493.979269 704,494 C700.717907,496.188062 699.100717,496.406685 695.242188,496.824219 C694.071316,496.961826 692.900444,497.099434 691.694092,497.241211 C690.433791,497.388486 689.173491,497.535762 687.875,497.6875 C667.023844,500.368604 643.885257,504.491794 627,518 C626.34,517.67 625.68,517.34 625,517 C643.842892,500.008989 665.66555,493.771945 690.5625,493.9375 Z" fill="#D6D5D5"></path>
                <path d="M833,494 C861.487029,492.999825 887.84536,494.719819 910,515 C905.3617,515 901.685597,512.369439 897.683594,510.195312 C887.298629,504.77183 875.984888,502.377229 864.543701,500.244629 C862.565907,499.875636 860.590535,499.495377 858.615234,499.113281 C850.10247,497.494627 841.587994,496.148622 833,495 C833,494.67 833,494.34 833,494 Z" fill="#D6D5D6"></path>
                <path d="M598,422 C598,425 598,425 595.898438,427.34375 C583.338369,438.854325 571.722098,446.54131 554,447 C554.66,446.01 555.32,445.02 556,444 C555.67,443.34 555.34,442.68 555,442 C559.29,440.68 563.58,439.36 568,438 C560.08,437.67 552.16,437.34 544,437 C546,435 546,435 548.299805,434.852295 C549.721479,434.915741 549.721479,434.915741 551.171875,434.980469 C552.747271,435.029775 552.747271,435.029775 554.354492,435.080078 C555.47501,435.115527 556.595527,435.150977 557.75,435.1875 C573.941802,435.416651 584.692415,430.908566 598,422 Z" fill="#DCDCDC"></path>
                <path d="M826,503 C849.981203,505.236189 871.783311,514.805771 887.601562,533.3125 C888.063047,533.869375 888.524531,534.42625 889,535 C888.505,535.99 888.505,535.99 888,537 C887.631328,536.538516 887.262656,536.077031 886.882812,535.601562 C876.457455,523.878828 860.118508,517.823593 845.951904,511.829834 C844.077099,511.032778 842.214003,510.208348 840.351562,509.382812 C837.269313,508.111115 834.285955,507.148211 831.0625,506.3125 C830.104727,506.061133 829.146953,505.809766 828.160156,505.550781 C827.447305,505.369023 826.734453,505.187266 826,505 C826,504.34 826,503.68 826,503 Z" fill="#D6D5D5"></path>
                <path d="M576,607 C576.495,608.485 576.495,608.485 577,610 C576.01,610.33 575.02,610.66 574,611 C573.291975,612.311839 572.635721,613.651638 572,615 C570.91852,616.512845 569.834423,618.024055 568.725098,619.516602 C559.81139,631.516473 552.391452,644.260401 547.875,658.5625 C547,661 547,661 545,662 C544.01,661.01 543.02,660.02 542,659 C548.27031,638.009756 560.378699,621.927021 576,607 Z" fill="#D6D6D6"></path>
                <path d="M711,504 C710,506 710,506 707.070312,507.007812 C705.756237,507.383823 704.441035,507.755906 703.125,508.125 C684.124467,513.786251 666.075494,521.939204 651,535 C651,530.950745 652.374866,530.160907 655.1875,527.3125 C660.85377,521.814535 667.060679,517.774428 674,514 C674.737585,513.589998 675.475171,513.179995 676.235107,512.757568 C682.440474,509.452917 688.449465,507.618276 695.3125,506.1875 C696.274785,505.971582 697.23707,505.755664 698.228516,505.533203 C702.58247,504.584071 706.527123,503.882857 711,504 Z" fill="#D7D6D7"></path>
                <path d="M943,427 C945.652605,428.046441 948.284457,429.122895 950.902344,430.253906 C951.903945,430.685742 952.905547,431.117578 953.9375,431.5625 C954.936523,431.996914 955.935547,432.431328 956.964844,432.878906 C959.991662,433.99692 962.808369,434.576669 966,435 C966,435.66 966,436.32 966,437 C973.425,439.97 973.425,439.97 981,443 C980.67,443.66 980.34,444.32 980,445 C966.179562,443.506501 955.202916,439.715127 945,430 C944.34,429.01 943.68,428.02 943,427 Z" fill="#DADADA"></path>
                <path d="M680,386 C681.325301,393.349398 681.325301,393.349398 680,396 C676.890778,397.554611 674.411804,397.36555 671,397 C669.0625,395.8125 669.0625,395.8125 668,394 C667.5625,391.5 667.5625,391.5 668,389 C671.290231,385.024305 675.245144,385.762257 680,386 Z" fill="#F2F8F8"></path>
                <path d="M715,360 C722.328406,369.002996 729.981589,378.993048 734,390 C733.67,390.99 733.34,391.98 733,393 C732.636484,392.431523 732.272969,391.863047 731.898438,391.277344 C729.429246,387.484918 726.979401,383.857942 723.9375,380.5 C718.481265,374.282764 715.451871,368.284302 715,360 Z" fill="#181819"></path>
                <path d="M838.4375,402.8125 C839.642129,402.79123 839.642129,402.79123 840.871094,402.769531 C843,403 843,403 845,405 C844.8125,408 844.8125,408 844,411 C840.767462,413.155025 839.748491,413.468561 836,413 C834.1875,411.875 834.1875,411.875 833,410 C832.75,406.875 832.75,406.875 833,404 C834.588941,402.411059 836.248014,402.830016 838.4375,402.8125 Z" fill="#FAF9F4"></path>
                <path d="M820,364 C821.576704,368.928578 820.162421,372.439509 818,377 C815.51063,380.807892 812.767407,384.391792 810,388 C808.626848,389.977947 807.310399,391.979801 806,394 C805,391 805,391 805.75,388.90625 C808.69608,383.235046 811.931171,377.851633 815.417969,372.496094 C817.169239,369.732979 818.635935,366.968848 820,364 Z" fill="#161616"></path>
                <path d="M914,505 C921.535541,504.616837 928.860231,505.418208 936,508 C936.33,508.99 936.66,509.98 937,511 C934.290576,511.108618 931.585561,511.187586 928.875,511.25 C927.73418,511.300273 927.73418,511.300273 926.570312,511.351562 C921.101757,511.445848 918.177038,510.603195 914,507 C914,506.34 914,505.68 914,505 Z" fill="#D7D7D7"></path>
                <path d="M571,462 C571.33,462.99 571.66,463.98 572,465 C571.168555,465.892031 570.337109,466.784063 569.480469,467.703125 C568.382713,468.885324 567.285062,470.067621 566.1875,471.25 C565.640293,471.836523 565.093086,472.423047 564.529297,473.027344 C561.852197,475.915367 559.274912,478.775213 557,482 C556.01,481.67 555.02,481.34 554,481 C556.843575,472.210769 563.944095,467.39811 571,462 Z" fill="#D7D8D8"></path>
                <path d="M698.9375,402.8125 C702,403 702,403 704,405 C704.25,407.5 704.25,407.5 704,410 C702,412 702,412 699,412.3125 C698.01,412.209375 697.02,412.10625 696,412 C694,409 694,409 694.3125,406.375 C695.300183,402.963003 695.281461,403.045864 698.9375,402.8125 Z" fill="#F5F8F8"></path>
                <path d="M600,303 C605.76071,304.293221 609.331959,306.379886 614,310 C611.352611,311.460628 610.105517,312 607,312 C607,312.66 607,313.32 607,314 C605.1875,313.9375 605.1875,313.9375 603,313 C601.187212,309.50391 600,306.960182 600,303 Z" fill="#CB9C97"></path>
                <path d="M936,303 C935.602462,304.463663 935.181186,305.920893 934.75,307.375 C934.401953,308.593164 934.401953,308.593164 934.046875,309.835938 C932.778511,312.457855 931.675767,312.993823 929,314 C928.67,313.34 928.34,312.68 928,312 C925.472668,311.344449 925.472668,311.344449 923,311 C923,310.34 923,309.68 923,309 C925.082031,307.492188 925.082031,307.492188 927.8125,305.875 C928.70582,305.336172 929.599141,304.797344 930.519531,304.242188 C933,303 933,303 936,303 Z" fill="#C59490"></path>
                <path d="M884,384 C884.99,384 885.98,384 887,384 C887.05437,386.854428 887.09385,389.707801 887.125,392.5625 C887.150137,393.762295 887.150137,393.762295 887.175781,394.986328 C887.21724,400.065003 886.640561,404.188119 885,409 C884.34,408.67 883.68,408.34 883,408 C883.072188,407.440547 883.144375,406.881094 883.21875,406.304688 C884.08061,398.859173 884.09711,391.488275 884,384 Z" fill="#D69026"></path>
                <path d="M556,634 C557,637 557,637 555.890625,639.664062 C555.349219,640.641172 554.807812,641.618281 554.25,642.625 C553.718906,643.607266 553.187812,644.589531 552.640625,645.601562 C551,648 551,648 548,649 C548.494717,644.052833 549.339066,640.237784 552,636 C554.1875,634.625 554.1875,634.625 556,634 Z" fill="#DDDDDD"></path>
                <path d="M709.6875,431.375 C710.450625,431.58125 711.21375,431.7875 712,432 C707.756745,436.243255 701.776267,436.105157 696.076904,436.13623 C693.050128,436.119864 690.026015,436.070922 687,436 C687,435.34 687,434.68 687,434 C692.008346,433.128983 696.683876,432.962883 701.765625,433.160156 C705.168494,432.916244 706.14272,430.88038 709.6875,431.375 Z" fill="#25CEC8"></path>
                <path d="M569,249 C569.33,249 569.66,249 570,249 C570.037584,250.254902 570.037584,250.254902 570.075928,251.535156 C570.171728,254.673767 570.270917,257.812249 570.372314,260.950684 C570.436327,262.963136 570.49652,264.975709 570.556641,266.988281 C570.765607,273.385855 571.039001,279.668711 572,286 C570,285 570,285 569.148438,282.714844 C568.893203,281.79832 568.637969,280.881797 568.375,279.9375 C568.114609,279.018398 567.854219,278.099297 567.585938,277.152344 C567.392578,276.44207 567.199219,275.731797 567,275 C567.66,275 568.32,275 569,275 C569,266.42 569,257.84 569,249 Z" fill="#9F9F9F"></path>
                <path d="M723,522 C727.62,522 732.24,522 737,522 C736.67,522.66 736.34,523.32 736,524 C738.97,524.495 738.97,524.495 742,525 C742,525.33 742,525.66 742,526 C735.294814,526.198183 729.348232,526.308448 723,524 C723,523.34 723,522.68 723,522 Z" fill="#1D1D1D"></path>
                <path d="M808.125,521.9375 C809.406328,521.946523 810.687656,521.955547 812.007812,521.964844 C812.995234,521.976445 813.982656,521.988047 815,522 C811.636416,525.363584 807.698398,525.926951 803.09375,526.125 C800.392868,526.125 797.699352,526.087863 795,526 C799.733147,522.371254 802.072938,521.882481 808.125,521.9375 Z" fill="#2D2D2D"></path>
                <path d="M833,494 C836.104147,493.970964 839.208259,493.953189 842.3125,493.9375 C843.193574,493.929121 844.074648,493.920742 844.982422,493.912109 C845.82998,493.908887 846.677539,493.905664 847.550781,493.902344 C848.72121,493.894489 848.72121,493.894489 849.915283,493.886475 C852,494 852,494 855,495 C855,495.66 855,496.32 855,497 C852.082529,496.885942 849.166555,496.759197 846.25,496.625 C845.425,496.594063 844.6,496.563125 843.75,496.53125 C842.950781,496.492578 842.151562,496.453906 841.328125,496.414062 C840.594971,496.382642 839.861816,496.351221 839.106445,496.318848 C836.750771,495.962275 835.065494,495.163371 833,494 Z" fill="#CFCFCF"></path>
                <path d="M541,660 C541.33,660.66 541.66,661.32 542,662 C544.527332,662.655551 544.527332,662.655551 547,663 C545.461162,667.616515 541.881011,669.412659 538,672 C538.99,668.04 539.98,664.08 541,660 Z" fill="#DBDBDB"></path>
                <path d="M683,477 C689.192405,477.688045 695.019556,479.280487 701,481 C697.893159,481.951392 695.454949,482.011116 692.234375,481.660156 C691.344922,481.566699 690.455469,481.473242 689.539062,481.376953 C688.618672,481.273184 687.698281,481.169414 686.75,481.0625 C685.814141,480.962598 684.878281,480.862695 683.914062,480.759766 C681.608624,480.512754 679.304085,480.259289 677,480 C677,479.67 677,479.34 677,479 C678.98,478.67 680.96,478.34 683,478 C683,477.67 683,477.34 683,477 Z" fill="#DFDFDF"></path>
                <path d="M559,511 C559.66,511 560.32,511 561,511 C561.75,513.25 561.75,513.25 562,516 C560.0625,518.3125 560.0625,518.3125 558,520 C557.01,519.67 556.02,519.34 555,519 C556.124517,516.028062 557.222938,513.665593 559,511 Z" fill="#C6C5C6"></path>
                <path d="M641,507 C639.69652,510.91044 638.283307,511.200301 634.6875,513.0625 C633.721992,513.569102 632.756484,514.075703 631.761719,514.597656 C629.511819,515.740109 627.260149,516.877978 625,518 C635.352941,507 635.352941,507 641,507 Z" fill="#DCDCDC"></path>
                <path d="M593,693 C594.416871,697.250614 593.1932,699.718516 592,704 C591.34,703.01 590.68,702.02 590,701 C588.68,702.32 587.36,703.64 586,705 C587.557019,700.328942 590.084474,696.912943 593,693 Z" fill="#313131"></path>
                <path d="M925,506 C926.258125,506.12375 927.51625,506.2475 928.8125,506.375 C929.874043,506.479414 929.874043,506.479414 930.957031,506.585938 C933,507 933,507 936,509 C936.33,509.66 936.66,510.32 937,511 C933.7,510.67 930.4,510.34 927,510 C927.33,509.01 927.66,508.02 928,507 C927.01,506.67 926.02,506.34 925,506 Z" fill="#E7E7E7"></path>
                <path d="M702,395 C705.815385,397.461538 705.815385,397.461538 706.75,400.1875 C706.8325,400.785625 706.915,401.38375 707,402 C705.35,402.66 703.7,403.32 702,404 C702,401.03 702,398.06 702,395 Z" fill="#19D4CE"></path>
                <path d="M565,514 C565.66,514.33 566.32,514.66 567,515 C566.875,516.875 566.875,516.875 566,519 C562.9375,520.25 562.9375,520.25 560,521 C559.67,520.01 559.34,519.02 559,518 C560.98,516.68 562.96,515.36 565,514 Z" fill="#CFD0CF"></path>
                <path d="M826,503 C830.62,503.66 835.24,504.32 840,505 C840,505.33 840,505.66 840,506 C834.582642,506.934027 831.195484,507.208081 826,505 C826,504.34 826,503.68 826,503 Z" fill="#E8E8E8"></path>
                <path d="M557,474 C557.99,474 558.98,474 560,474 C560.33,474.99 560.66,475.98 561,477 C559.0625,479.6875 559.0625,479.6875 557,482 C556.01,481.67 555.02,481.34 554,481 C555.875,476.25 555.875,476.25 557,474 Z" fill="#E8E8E8"></path>
                <path d="M820,364 C821.600802,368.002004 820.292797,371.045562 819,375 C818.01,374.67 817.02,374.34 816,374 C816.475506,372.519652 816.955512,371.04075 817.4375,369.5625 C817.704336,368.738789 817.971172,367.915078 818.246094,367.066406 C819,365 819,365 820,364 Z" fill="#3D3D3E"></path>
                <path d="M567,616 C567.66,616 568.32,616 569,616 C568.436286,619.269542 567.500377,620.825759 565,623 C564.34,622.67 563.68,622.34 563,622 C564.151734,619.532 565.047836,617.952164 567,616 Z" fill="#CECECF"></path>
                <path d="M654,531 C654.66,531.33 655.32,531.66 656,532 C654.902202,533.151936 653.796506,534.296349 652.6875,535.4375 C652.072617,536.075586 651.457734,536.713672 650.824219,537.371094 C649,539 649,539 646,540 C647.583058,535.725744 650.505684,533.734682 654,531 Z" fill="#F1F1F1"></path>
                <path d="M548,655 C548.33,655.66 548.66,656.32 549,657 C549.99,656.67 550.98,656.34 552,656 C552.66,656.66 553.32,657.32 554,658 C552.68,658.33 551.36,658.66 550,659 C550,659.66 550,660.32 550,661 C549.01,661.33 548.02,661.66 547,662 C547.33,659.69 547.66,657.38 548,655 Z" fill="#EFEFEF"></path>
                <path d="M970,265 C970.66,265 971.32,265 972,265 C972.25,267.75 972.25,267.75 972,271 C970,273.375 970,273.375 968,275 C968.66,271.7 969.32,268.4 970,265 Z" fill="#494A4B"></path>
                <path d="M580,401 C580.66,401.33 581.32,401.66 582,402 C579.69,403.65 577.38,405.3 575,407 C574.34,406.01 573.68,405.02 573,404 C575.303687,402.933478 577.640182,401.93579 580,401 Z" fill="#2B2B2D"></path>
                <path d="M981,443 C980.67,443.66 980.34,444.32 980,445 C976.7,444.67 973.4,444.34 970,444 C970,443.67 970,443.34 970,443 C973.981965,441.945951 976.981953,442.159013 981,443 Z" fill="#E9E9E8"></path>
                <path d="M563,265 C563.99,265.495 563.99,265.495 565,266 C565.625,269.0625 565.625,269.0625 566,272 C565.34,272 564.68,272 564,272 C563.67,272.66 563.34,273.32 563,274 C563,271.03 563,268.06 563,265 Z" fill="#434544"></path>
            </g>
        </g>
    </g>
</svg>